<svg xmlns="http://www.w3.org/2000/svg" version="1.1" xmlns:xlink="http://www.w3.org/1999/xlink" xmlns:svgjs="http://svgjs.dev/svgjs" width="1440" height="560" preserveAspectRatio="none" viewBox="0 0 1440 560"><g mask="url(&quot;#SvgjsMask1049&quot;)" fill="none"><rect width="1440" height="560" x="0" y="0" fill="rgba(120, 66, 18, 1)"></rect><path d="M0,544.413C115.99,561.471,238.521,586.19,344.49,536.037C455.469,483.513,531.849,377.83,585.413,267.349C639.8,155.169,675.913,28.466,649.657,-93.407C624.098,-212.044,530.716,-299.711,444.786,-385.409C364.256,-465.722,279.106,-547.482,168.365,-573.399C60.297,-598.69,-45.902,-549.291,-154.337,-525.624C-271.98,-499.948,-425.855,-527.453,-494.719,-428.677C-565.01,-327.854,-456.843,-189.851,-473.342,-68.056C-489.625,52.143,-631.154,155.272,-589.243,269.098C-548.02,381.056,-393.087,392.961,-284.997,443.464C-191.802,487.008,-101.771,529.446,0,544.413" fill="#4e2b0c"></path><path d="M1440 1134.538C1545.505 1123.533 1634.4279999999999 1057.23 1715.871 989.264 1789.612 927.726 1836.435 846.092 1884.963 763.208 1939.013 670.892 2016.046 584.207 2015.6599999999999 477.233 2015.2559999999999 365.313 1949.02 266.535 1882.844 176.274 1812.076 79.75 1732.417-13.623000000000047 1621.971-59.738000000000056 1504.757-108.67899999999997 1367.852-134.72799999999995 1249.705-88.08500000000004 1134.125-42.45600000000002 1084.663 87.72699999999998 1005.605 183.59500000000003 928.8240000000001 276.702 798.255 346.32 792.083 466.844 785.886 587.854 915.537 666.8340000000001 975.467 772.145 1028.664 865.623 1039.683 984.794 1124.4850000000001 1050.95 1212.042 1119.255 1329.55 1146.059 1440 1134.538" fill="#a25918"></path></g><defs><mask id="SvgjsMask1049"><rect width="1440" height="560" fill="#ffffff"></rect></mask></defs></svg>